# xmcd
# 
# Track frame offsets:
#     150
#     29026
#     45748
#     77335
#     98630
#     119261
#     150009
#     177839
#     195221
#     221581
#     244948
#     270355
# 
# Disc length: 3824
# 
# Revision: 5
# Processed by: cddbd v1.5.2PL0 Copyright (c) Steve Scherf et al.
# Submitted via: fre:ac v1.0.17
# 
DISCID=8b0eee0c
DTITLE=Gallagher, Rory - Notes From San Francisco (live)
DYEAR=1979
DGENRE=Blues
TTITLE0=Follow Me
TTITLE1=Shin Kicker
TTITLE2=Off The Handle
TTITLE3=Bought And Sold
TTITLE4=I'm Leavin'
TTITLE5=Tattoo'd Lady
TTITLE6=Do You Read Me
TTITLE7=Country Mile
TTITLE8=Calling Card
TTITLE9=Shadow Play
TTITLE10=Bullfrog Blues
TTITLE11=Sea Cruise
EXTD=
EXTT0=
EXTT1=
EXTT2=
EXTT3=
EXTT4=
EXTT5=
EXTT6=
EXTT7=
EXTT8=
EXTT9=
EXTT10=
EXTT11=
PLAYORDER=
